<svg xmlns="http://www.w3.org/2000/svg" viewBox="0 0 512 512" role="img" aria-label="ИИ-практикум">
  <defs>
    <linearGradient id="bg" x1="0" y1="0" x2="1" y2="1">
      <stop offset="0" stop-color="#6470f0"/>
      <stop offset="0.55" stop-color="#2aa0e8"/>
      <stop offset="1" stop-color="#14b8a0"/>
    </linearGradient>
    <linearGradient id="spark" x1="0" y1="0" x2="1" y2="1">
      <stop offset="0" stop-color="#ffffff"/>
      <stop offset="1" stop-color="#e8f0ff"/>
    </linearGradient>
  </defs>
  <rect width="512" height="512" rx="116" fill="url(#bg)"/>
  <!-- main 4-point spark = AI assist -->
  <path fill="url(#spark)" d="M256 96c10 78 36 104 114 114-78 10-104 36-114 114-10-78-36-104-114-114 78-10 104-36 114-114z"/>
  <!-- small secondary spark -->
  <path fill="#ffffff" opacity="0.92" d="M374 300c4 32 15 43 47 47-32 4-43 15-47 47-4-32-15-43-47-47 32-4 43-15 47-47z"/>
  <circle cx="150" cy="356" r="20" fill="#ffffff" opacity="0.85"/>
</svg>
