<svg xmlns="http://www.w3.org/2000/svg" viewBox="0 0 512 512" role="img" aria-label="ИИ-практикум">
  <defs>
    <linearGradient id="bgm" x1="0" y1="0" x2="1" y2="1">
      <stop offset="0" stop-color="#6470f0"/>
      <stop offset="0.55" stop-color="#2aa0e8"/>
      <stop offset="1" stop-color="#14b8a0"/>
    </linearGradient>
  </defs>
  <rect width="512" height="512" fill="url(#bgm)"/>
  <g transform="translate(256 256) scale(0.74) translate(-256 -256)">
    <path fill="#ffffff" d="M256 96c10 78 36 104 114 114-78 10-104 36-114 114-10-78-36-104-114-114 78-10 104-36 114-114z"/>
    <path fill="#ffffff" opacity="0.92" d="M374 300c4 32 15 43 47 47-32 4-43 15-47 47-4-32-15-43-47-47 32-4 43-15 47-47z"/>
    <circle cx="150" cy="356" r="20" fill="#ffffff" opacity="0.85"/>
  </g>
</svg>
